
<svg width="80" height="80" viewBox="0 0 80 80" fill="none" xmlns="http://www.w3.org/2000/svg">
  <circle cx="40" cy="40" r="40" fill="white"/>
  <path d="M40 10C23.4315 10 10 23.4315 10 40C10 56.5685 23.4315 70 40 70C56.5685 70 70 56.5685 70 40C70 23.4315 56.5685 10 40 10Z" fill="#4F16D9"/>
  <path d="M40 15C26.1929 15 15 26.1929 15 40C15 53.8071 26.1929 65 40 65C53.8071 65 65 53.8071 65 40C65 26.1929 53.8071 15 40 15Z" fill="#F52222"/>
  <path d="M40 20C28.9543 20 20 28.9543 20 40C20 51.0457 28.9543 60 40 60C51.0457 60 60 51.0457 60 40C60 28.9543 51.0457 20 40 20Z" fill="white"/>
  <path d="M40 25C31.7157 25 25 31.7157 25 40C25 48.2843 31.7157 55 40 55C48.2843 55 55 48.2843 55 40C55 31.7157 48.2843 25 40 25Z" fill="#FFE600"/>
  <path d="M40 50L30 35L50 35L40 50Z" fill="#4F16D9"/>
  <path d="M40 30L50 45L30 45L40 30Z" fill="#F52222"/>
</svg>
